<svg width="465" height="676" viewBox="0 0 465 676" fill="none" xmlns="http://www.w3.org/2000/svg">
<g filter="url(#filter0_d_5_98)">
<rect x="67" y="72" width="331" height="531" rx="19" fill="white"/>
</g>
<rect width="232" height="100" transform="translate(116 353)" fill="white"/>
<path d="M339.269 359.204C342.522 364.21 344.925 371.539 346.131 379.964C347.334 388.375 347.335 397.807 345.84 406.976C342.841 425.364 333.895 442.404 316.932 448.36C299.751 454.393 284.875 452.128 268.325 447.353C263.808 446.05 259.158 444.556 254.302 442.997C241.405 438.853 227.061 434.246 209.919 431.513C186.104 427.717 168.913 434.667 155.655 441.165C154.003 441.974 152.422 442.771 150.901 443.538C146.281 445.867 142.225 447.912 138.491 449.143C133.588 450.759 129.483 450.883 125.637 448.458C121.812 446.046 119.068 440.447 117.793 432.808C116.528 425.23 116.755 415.886 118.628 406.336C122.385 387.19 132.683 367.557 150.375 359.571C168.089 351.574 185.81 356.337 203.901 363.418C207.419 364.794 210.966 366.265 214.526 367.741C220.052 370.033 225.609 372.337 231.137 374.323C240.266 377.602 249.489 380.083 258.782 380.34C284.387 381.049 301.569 370.562 313.926 362.61C314.384 362.315 314.835 362.024 315.28 361.737C317.834 360.089 320.157 358.59 322.313 357.35C324.845 355.894 327.076 354.838 329.091 354.332C331.086 353.832 332.825 353.881 334.43 354.584C336.05 355.292 337.655 356.719 339.269 359.204Z" fill="#A8A7E1" stroke="#A8A7E1" stroke-width="2"/>
<rect width="232" height="100" transform="translate(116 219)" fill="white"/>
<path d="M339.269 225.204C342.522 230.21 344.925 237.539 346.131 245.964C347.334 254.375 347.335 263.807 345.84 272.976C342.841 291.364 333.895 308.404 316.932 314.36C299.751 320.393 284.875 318.128 268.325 313.353C263.808 312.05 259.158 310.556 254.302 308.997C241.405 304.853 227.061 300.246 209.919 297.513C186.104 293.717 168.913 300.667 155.655 307.165C154.003 307.974 152.422 308.771 150.901 309.538C146.281 311.867 142.225 313.912 138.491 315.143C133.588 316.759 129.483 316.883 125.637 314.458C121.812 312.046 119.068 306.447 117.793 298.808C116.528 291.23 116.755 281.886 118.628 272.336C122.385 253.19 132.683 233.557 150.375 225.571C168.089 217.574 185.81 222.337 203.901 229.418C207.419 230.794 210.966 232.265 214.526 233.741C220.052 236.033 225.609 238.337 231.137 240.323C240.266 243.602 249.489 246.083 258.782 246.34C284.387 247.049 301.569 236.562 313.926 228.61C314.384 228.315 314.835 228.024 315.28 227.737C317.834 226.089 320.157 224.59 322.313 223.35C324.845 221.894 327.076 220.838 329.091 220.332C331.086 219.832 332.825 219.881 334.43 220.584C336.05 221.292 337.655 222.719 339.269 225.204Z" fill="#A8A7E1" stroke="#A8A7E1" stroke-width="2"/>
<defs>
<filter id="filter0_d_5_98" x="57" y="66" width="351" height="551" filterUnits="userSpaceOnUse" color-interpolation-filters="sRGB">
<feFlood flood-opacity="0" result="BackgroundImageFix"/>
<feColorMatrix in="SourceAlpha" type="matrix" values="0 0 0 0 0 0 0 0 0 0 0 0 0 0 0 0 0 0 127 0" result="hardAlpha"/>
<feMorphology radius="5" operator="dilate" in="SourceAlpha" result="effect1_dropShadow_5_98"/>
<feOffset dy="4"/>
<feGaussianBlur stdDeviation="2.5"/>
<feComposite in2="hardAlpha" operator="out"/>
<feColorMatrix type="matrix" values="0 0 0 0 0 0 0 0 0 0 0 0 0 0 0 0 0 0 0.25 0"/>
<feBlend mode="normal" in2="BackgroundImageFix" result="effect1_dropShadow_5_98"/>
<feBlend mode="normal" in="SourceGraphic" in2="effect1_dropShadow_5_98" result="shape"/>
</filter>
</defs>
</svg>
