<svg width="465" height="676" viewBox="0 0 465 676" fill="none" xmlns="http://www.w3.org/2000/svg">
<g filter="url(#filter0_d_5_138)">
<rect x="67" y="72" width="331" height="531" rx="19" fill="white"/>
</g>
<rect width="231.507" height="100" transform="translate(116 219)" fill="white"/>
<path d="M338.792 225.203C342.038 230.21 344.436 237.538 345.639 245.964C346.84 254.375 346.841 263.807 345.349 272.976C342.357 291.365 333.43 308.405 316.504 314.361C299.361 320.393 284.517 318.128 268.002 313.353C263.495 312.05 258.855 310.557 254.01 308.997C241.14 304.854 226.826 300.246 209.72 297.513C185.954 293.717 168.799 300.667 155.569 307.165C153.921 307.974 152.342 308.772 150.825 309.538C146.215 311.868 142.168 313.912 138.442 315.143C133.55 316.759 129.456 316.883 125.619 314.459C121.802 312.047 119.063 306.448 117.791 298.808C116.529 291.23 116.755 281.886 118.625 272.336C122.374 253.189 132.65 233.557 150.304 225.57C167.978 217.575 185.66 222.337 203.713 229.417C207.223 230.794 210.762 232.265 214.315 233.741C219.829 236.033 225.375 238.337 230.891 240.323C240.001 243.602 249.205 246.083 258.478 246.34C284.03 247.049 301.177 236.561 313.507 228.61C313.964 228.315 314.414 228.024 314.858 227.737C317.407 226.089 319.725 224.589 321.876 223.35C324.403 221.893 326.628 220.838 328.639 220.332C330.629 219.832 332.363 219.881 333.964 220.583C335.58 221.292 337.181 222.718 338.792 225.203Z" fill="white" stroke="#A8A7E1" stroke-width="2"/>
<rect width="231.507" height="100" transform="translate(116 353)" fill="white"/>
<path d="M338.792 359.203C342.038 364.21 344.436 371.538 345.639 379.964C346.84 388.375 346.841 397.807 345.349 406.976C342.357 425.365 333.43 442.405 316.504 448.361C299.361 454.393 284.517 452.128 268.002 447.353C263.495 446.05 258.855 444.557 254.01 442.997C241.14 438.854 226.826 434.246 209.72 431.513C185.954 427.717 168.799 434.667 155.569 441.165C153.921 441.974 152.342 442.772 150.825 443.538C146.215 445.868 142.168 447.912 138.442 449.143C133.55 450.759 129.456 450.883 125.619 448.459C121.802 446.047 119.063 440.448 117.791 432.808C116.529 425.23 116.755 415.886 118.625 406.336C122.374 387.189 132.65 367.557 150.304 359.57C167.978 351.575 185.66 356.337 203.713 363.417C207.223 364.794 210.762 366.265 214.315 367.741C219.829 370.033 225.375 372.337 230.891 374.323C240.001 377.602 249.205 380.083 258.478 380.34C284.03 381.049 301.177 370.561 313.507 362.61C313.964 362.315 314.414 362.024 314.858 361.737C317.407 360.089 319.725 358.589 321.876 357.35C324.403 355.893 326.628 354.838 328.639 354.332C330.629 353.832 332.363 353.881 333.964 354.583C335.58 355.292 337.181 356.718 338.792 359.203Z" fill="white" stroke="#A8A7E1" stroke-width="2"/>
<defs>
<filter id="filter0_d_5_138" x="57" y="66" width="351" height="551" filterUnits="userSpaceOnUse" color-interpolation-filters="sRGB">
<feFlood flood-opacity="0" result="BackgroundImageFix"/>
<feColorMatrix in="SourceAlpha" type="matrix" values="0 0 0 0 0 0 0 0 0 0 0 0 0 0 0 0 0 0 127 0" result="hardAlpha"/>
<feMorphology radius="5" operator="dilate" in="SourceAlpha" result="effect1_dropShadow_5_138"/>
<feOffset dy="4"/>
<feGaussianBlur stdDeviation="2.5"/>
<feComposite in2="hardAlpha" operator="out"/>
<feColorMatrix type="matrix" values="0 0 0 0 0 0 0 0 0 0 0 0 0 0 0 0 0 0 0.25 0"/>
<feBlend mode="normal" in2="BackgroundImageFix" result="effect1_dropShadow_5_138"/>
<feBlend mode="normal" in="SourceGraphic" in2="effect1_dropShadow_5_138" result="shape"/>
</filter>
</defs>
</svg>
