<svg width="465" height="676" viewBox="0 0 465 676" fill="none" xmlns="http://www.w3.org/2000/svg">
<g filter="url(#filter0_d_5_24)">
<rect x="67" y="72" width="331" height="531" rx="19" fill="white"/>
</g>
<rect width="232" height="100" transform="translate(116 359)" fill="white"/>
<path d="M339.269 365.204C342.522 370.21 344.925 377.539 346.131 385.964C347.334 394.375 347.335 403.807 345.84 412.976C342.841 431.364 333.895 448.404 316.932 454.36C299.751 460.393 284.875 458.128 268.325 453.353C263.808 452.05 259.158 450.556 254.302 448.997C241.405 444.853 227.061 440.246 209.919 437.513C186.104 433.717 168.913 440.667 155.655 447.165C154.003 447.974 152.422 448.771 150.901 449.538C146.281 451.867 142.225 453.912 138.491 455.143C133.588 456.759 129.483 456.883 125.637 454.458C121.812 452.046 119.068 446.447 117.793 438.808C116.528 431.23 116.755 421.886 118.628 412.336C122.385 393.19 132.683 373.557 150.375 365.571C168.089 357.574 185.81 362.337 203.901 369.418C207.419 370.794 210.966 372.265 214.526 373.741C220.052 376.033 225.609 378.337 231.137 380.323C240.266 383.602 249.489 386.083 258.782 386.34C284.387 387.049 301.569 376.562 313.926 368.61C314.384 368.315 314.835 368.024 315.28 367.737C317.834 366.089 320.157 364.59 322.313 363.35C324.845 361.894 327.076 360.838 329.091 360.332C331.086 359.832 332.825 359.881 334.43 360.584C336.05 361.292 337.655 362.719 339.269 365.204Z" fill="#6BDC74" stroke="#6BDC74" stroke-width="2"/>
<rect width="232" height="100" transform="translate(116 212)" fill="white"/>
<path d="M339.269 218.204C342.522 223.21 344.925 230.539 346.131 238.964C347.334 247.375 347.335 256.807 345.84 265.976C342.841 284.364 333.895 301.404 316.932 307.36C299.751 313.393 284.875 311.128 268.325 306.353C263.808 305.05 259.158 303.556 254.302 301.997C241.405 297.853 227.061 293.246 209.919 290.513C186.104 286.717 168.913 293.667 155.655 300.165C154.003 300.974 152.422 301.771 150.901 302.538C146.281 304.867 142.225 306.912 138.491 308.143C133.588 309.759 129.483 309.883 125.637 307.458C121.812 305.046 119.068 299.447 117.793 291.808C116.528 284.23 116.755 274.886 118.628 265.336C122.385 246.19 132.683 226.557 150.375 218.571C168.089 210.574 185.81 215.337 203.901 222.418C207.419 223.794 210.966 225.265 214.526 226.741C220.052 229.033 225.609 231.337 231.137 233.323C240.266 236.602 249.489 239.083 258.782 239.34C284.387 240.049 301.569 229.562 313.926 221.61C314.384 221.315 314.835 221.024 315.28 220.737C317.834 219.089 320.157 217.59 322.313 216.35C324.845 214.894 327.076 213.838 329.091 213.332C331.086 212.832 332.825 212.881 334.43 213.584C336.05 214.292 337.655 215.719 339.269 218.204Z" fill="#6BDC74" stroke="#6BDC74" stroke-width="2"/>
<defs>
<filter id="filter0_d_5_24" x="57" y="66" width="351" height="551" filterUnits="userSpaceOnUse" color-interpolation-filters="sRGB">
<feFlood flood-opacity="0" result="BackgroundImageFix"/>
<feColorMatrix in="SourceAlpha" type="matrix" values="0 0 0 0 0 0 0 0 0 0 0 0 0 0 0 0 0 0 127 0" result="hardAlpha"/>
<feMorphology radius="5" operator="dilate" in="SourceAlpha" result="effect1_dropShadow_5_24"/>
<feOffset dy="4"/>
<feGaussianBlur stdDeviation="2.5"/>
<feComposite in2="hardAlpha" operator="out"/>
<feColorMatrix type="matrix" values="0 0 0 0 0 0 0 0 0 0 0 0 0 0 0 0 0 0 0.25 0"/>
<feBlend mode="normal" in2="BackgroundImageFix" result="effect1_dropShadow_5_24"/>
<feBlend mode="normal" in="SourceGraphic" in2="effect1_dropShadow_5_24" result="shape"/>
</filter>
</defs>
</svg>
