<svg width="465" height="676" viewBox="0 0 465 676" fill="none" xmlns="http://www.w3.org/2000/svg">
<g filter="url(#filter0_d_5_78)">
<rect x="67" y="72" width="331" height="531" rx="19" fill="white"/>
</g>
<rect width="232" height="100" transform="translate(116 349)" fill="white"/>
<path d="M339.269 355.204C342.522 360.21 344.925 367.539 346.131 375.964C347.334 384.375 347.335 393.807 345.84 402.976C342.841 421.364 333.895 438.404 316.932 444.36C299.751 450.393 284.875 448.128 268.325 443.353C263.808 442.05 259.158 440.556 254.302 438.997C241.405 434.853 227.061 430.246 209.919 427.513C186.104 423.717 168.913 430.667 155.655 437.165C154.003 437.974 152.422 438.771 150.901 439.538C146.281 441.867 142.225 443.912 138.491 445.143C133.588 446.759 129.483 446.883 125.637 444.458C121.812 442.046 119.068 436.447 117.793 428.808C116.528 421.23 116.755 411.886 118.628 402.336C122.385 383.19 132.683 363.557 150.375 355.571C168.089 347.574 185.81 352.337 203.901 359.418C207.419 360.794 210.966 362.265 214.526 363.741C220.052 366.033 225.609 368.337 231.137 370.323C240.266 373.602 249.489 376.083 258.782 376.34C284.387 377.049 301.569 366.562 313.926 358.61C314.384 358.315 314.835 358.024 315.28 357.737C317.834 356.089 320.157 354.59 322.313 353.35C324.845 351.894 327.076 350.838 329.091 350.332C331.086 349.832 332.825 349.881 334.43 350.584C336.05 351.292 337.655 352.719 339.269 355.204Z" fill="white" stroke="#6BDC74" stroke-width="2"/>
<rect width="232" height="100" transform="translate(116 221)" fill="white"/>
<path d="M339.269 227.204C342.522 232.21 344.925 239.539 346.131 247.964C347.334 256.375 347.335 265.807 345.84 274.976C342.841 293.364 333.895 310.404 316.932 316.36C299.751 322.393 284.875 320.128 268.325 315.353C263.808 314.05 259.158 312.556 254.302 310.997C241.405 306.853 227.061 302.246 209.919 299.513C186.104 295.717 168.913 302.667 155.655 309.165C154.003 309.974 152.422 310.771 150.901 311.538C146.281 313.867 142.225 315.912 138.491 317.143C133.588 318.759 129.483 318.883 125.637 316.458C121.812 314.046 119.068 308.447 117.793 300.808C116.528 293.23 116.755 283.886 118.628 274.336C122.385 255.19 132.683 235.557 150.375 227.571C168.089 219.574 185.81 224.337 203.901 231.418C207.419 232.794 210.966 234.265 214.526 235.741C220.052 238.033 225.609 240.337 231.137 242.323C240.266 245.602 249.489 248.083 258.782 248.34C284.387 249.049 301.569 238.562 313.926 230.61C314.384 230.315 314.835 230.024 315.28 229.737C317.834 228.089 320.157 226.59 322.313 225.35C324.845 223.894 327.076 222.838 329.091 222.332C331.086 221.832 332.825 221.881 334.43 222.584C336.05 223.292 337.655 224.719 339.269 227.204Z" fill="white" stroke="#6BDC74" stroke-width="2"/>
<defs>
<filter id="filter0_d_5_78" x="57" y="66" width="351" height="551" filterUnits="userSpaceOnUse" color-interpolation-filters="sRGB">
<feFlood flood-opacity="0" result="BackgroundImageFix"/>
<feColorMatrix in="SourceAlpha" type="matrix" values="0 0 0 0 0 0 0 0 0 0 0 0 0 0 0 0 0 0 127 0" result="hardAlpha"/>
<feMorphology radius="5" operator="dilate" in="SourceAlpha" result="effect1_dropShadow_5_78"/>
<feOffset dy="4"/>
<feGaussianBlur stdDeviation="2.5"/>
<feComposite in2="hardAlpha" operator="out"/>
<feColorMatrix type="matrix" values="0 0 0 0 0 0 0 0 0 0 0 0 0 0 0 0 0 0 0.25 0"/>
<feBlend mode="normal" in2="BackgroundImageFix" result="effect1_dropShadow_5_78"/>
<feBlend mode="normal" in="SourceGraphic" in2="effect1_dropShadow_5_78" result="shape"/>
</filter>
</defs>
</svg>
