<svg width="465" height="676" viewBox="0 0 465 676" fill="none" xmlns="http://www.w3.org/2000/svg">
<g filter="url(#filter0_d_5_102)">
<rect x="67" y="72" width="331" height="531" rx="19" fill="white"/>
</g>
<rect width="232" height="100" transform="translate(116 288)" fill="white"/>
<path d="M339.269 294.204C342.522 299.21 344.925 306.539 346.131 314.964C347.334 323.375 347.335 332.807 345.84 341.976C342.841 360.364 333.895 377.404 316.932 383.36C299.751 389.393 284.875 387.128 268.325 382.353C263.808 381.05 259.158 379.556 254.302 377.997C241.405 373.853 227.061 369.246 209.919 366.513C186.104 362.717 168.913 369.667 155.655 376.165C154.003 376.974 152.422 377.771 150.901 378.538C146.281 380.867 142.225 382.912 138.491 384.143C133.588 385.759 129.483 385.883 125.637 383.458C121.812 381.046 119.068 375.447 117.793 367.808C116.528 360.23 116.755 350.886 118.628 341.336C122.385 322.19 132.683 302.557 150.375 294.571C168.089 286.574 185.81 291.337 203.901 298.418C207.419 299.794 210.966 301.265 214.526 302.741C220.052 305.033 225.609 307.337 231.137 309.323C240.266 312.602 249.489 315.083 258.782 315.34C284.387 316.049 301.569 305.562 313.926 297.61C314.384 297.315 314.835 297.024 315.28 296.737C317.834 295.089 320.157 293.59 322.313 292.35C324.845 290.894 327.076 289.838 329.091 289.332C331.086 288.832 332.825 288.881 334.43 289.584C336.05 290.292 337.655 291.719 339.269 294.204Z" fill="#A8A7E1" stroke="#A8A7E1" stroke-width="2"/>
<rect width="232" height="100" transform="translate(117 162)" fill="white"/>
<path d="M340.269 168.204C343.522 173.21 345.925 180.539 347.131 188.964C348.334 197.375 348.335 206.807 346.84 215.976C343.841 234.364 334.895 251.404 317.932 257.36C300.751 263.393 285.875 261.128 269.325 256.353C264.808 255.05 260.158 253.556 255.302 251.997C242.405 247.853 228.061 243.246 210.919 240.513C187.104 236.717 169.913 243.667 156.655 250.165C155.003 250.974 153.422 251.771 151.901 252.538C147.281 254.867 143.225 256.912 139.491 258.143C134.588 259.759 130.483 259.883 126.637 257.458C122.812 255.046 120.068 249.447 118.793 241.808C117.528 234.23 117.755 224.886 119.628 215.336C123.385 196.19 133.683 176.557 151.375 168.571C169.089 160.574 186.81 165.337 204.901 172.418C208.419 173.794 211.966 175.265 215.526 176.741C221.052 179.033 226.609 181.337 232.137 183.323C241.266 186.602 250.489 189.083 259.782 189.34C285.387 190.049 302.569 179.562 314.926 171.61C315.384 171.315 315.835 171.024 316.28 170.737C318.834 169.089 321.157 167.59 323.313 166.35C325.845 164.894 328.076 163.838 330.091 163.332C332.086 162.832 333.825 162.881 335.43 163.584C337.05 164.292 338.655 165.719 340.269 168.204Z" fill="#A8A7E1" stroke="#A8A7E1" stroke-width="2"/>
<rect width="232" height="100" transform="translate(116 414)" fill="white"/>
<path d="M339.269 420.204C342.522 425.21 344.925 432.539 346.131 440.964C347.334 449.375 347.335 458.807 345.84 467.976C342.841 486.364 333.895 503.404 316.932 509.36C299.751 515.393 284.875 513.128 268.325 508.353C263.808 507.05 259.158 505.556 254.302 503.997C241.405 499.853 227.061 495.246 209.919 492.513C186.104 488.717 168.913 495.667 155.655 502.165C154.003 502.974 152.422 503.771 150.901 504.538C146.281 506.867 142.225 508.912 138.491 510.143C133.588 511.759 129.483 511.883 125.637 509.458C121.812 507.046 119.068 501.447 117.793 493.808C116.528 486.23 116.755 476.886 118.628 467.336C122.385 448.19 132.683 428.557 150.375 420.571C168.089 412.574 185.81 417.337 203.901 424.418C207.419 425.794 210.966 427.265 214.526 428.741C220.052 431.033 225.609 433.337 231.137 435.323C240.266 438.602 249.489 441.083 258.782 441.34C284.387 442.049 301.569 431.562 313.926 423.61C314.384 423.315 314.835 423.024 315.28 422.737C317.834 421.089 320.157 419.59 322.313 418.35C324.845 416.894 327.076 415.838 329.091 415.332C331.086 414.832 332.825 414.881 334.43 415.584C336.05 416.292 337.655 417.719 339.269 420.204Z" fill="#A8A7E1" stroke="#A8A7E1" stroke-width="2"/>
<defs>
<filter id="filter0_d_5_102" x="57" y="66" width="351" height="551" filterUnits="userSpaceOnUse" color-interpolation-filters="sRGB">
<feFlood flood-opacity="0" result="BackgroundImageFix"/>
<feColorMatrix in="SourceAlpha" type="matrix" values="0 0 0 0 0 0 0 0 0 0 0 0 0 0 0 0 0 0 127 0" result="hardAlpha"/>
<feMorphology radius="5" operator="dilate" in="SourceAlpha" result="effect1_dropShadow_5_102"/>
<feOffset dy="4"/>
<feGaussianBlur stdDeviation="2.5"/>
<feComposite in2="hardAlpha" operator="out"/>
<feColorMatrix type="matrix" values="0 0 0 0 0 0 0 0 0 0 0 0 0 0 0 0 0 0 0.25 0"/>
<feBlend mode="normal" in2="BackgroundImageFix" result="effect1_dropShadow_5_102"/>
<feBlend mode="normal" in="SourceGraphic" in2="effect1_dropShadow_5_102" result="shape"/>
</filter>
</defs>
</svg>
