<svg width="465" height="676" viewBox="0 0 465 676" fill="none" xmlns="http://www.w3.org/2000/svg">
<g filter="url(#filter0_d_5_82)">
<rect x="67" y="72" width="331" height="531" rx="19" fill="white"/>
</g>
<rect width="232" height="100" transform="translate(116 288)" fill="white"/>
<path d="M339.269 294.204C342.522 299.21 344.925 306.539 346.131 314.964C347.334 323.375 347.335 332.807 345.84 341.976C342.841 360.364 333.895 377.404 316.932 383.36C299.751 389.393 284.875 387.128 268.325 382.353C263.808 381.05 259.158 379.556 254.302 377.997C241.405 373.853 227.061 369.246 209.919 366.513C186.104 362.717 168.913 369.667 155.655 376.165C154.003 376.974 152.422 377.771 150.901 378.538C146.281 380.867 142.225 382.912 138.491 384.143C133.588 385.759 129.483 385.883 125.637 383.458C121.812 381.046 119.068 375.447 117.793 367.808C116.528 360.23 116.755 350.886 118.628 341.336C122.385 322.19 132.683 302.557 150.375 294.571C168.089 286.574 185.81 291.337 203.901 298.418C207.419 299.794 210.966 301.265 214.526 302.741C220.052 305.033 225.609 307.337 231.137 309.323C240.266 312.602 249.489 315.083 258.782 315.34C284.387 316.049 301.569 305.562 313.926 297.61C314.384 297.315 314.835 297.024 315.28 296.737C317.834 295.089 320.157 293.59 322.313 292.35C324.845 290.894 327.076 289.838 329.091 289.332C331.086 288.832 332.825 288.881 334.43 289.584C336.05 290.292 337.655 291.719 339.269 294.204Z" fill="white" stroke="#6BDC74" stroke-width="2"/>
<rect width="232" height="100" transform="translate(116 412)" fill="white"/>
<path d="M339.269 418.204C342.522 423.21 344.925 430.539 346.131 438.964C347.334 447.375 347.335 456.807 345.84 465.976C342.841 484.364 333.895 501.404 316.932 507.36C299.751 513.393 284.875 511.128 268.325 506.353C263.808 505.05 259.158 503.556 254.302 501.997C241.405 497.853 227.061 493.246 209.919 490.513C186.104 486.717 168.913 493.667 155.655 500.165C154.003 500.974 152.422 501.771 150.901 502.538C146.281 504.867 142.225 506.912 138.491 508.143C133.588 509.759 129.483 509.883 125.637 507.458C121.812 505.046 119.068 499.447 117.793 491.808C116.528 484.23 116.755 474.886 118.628 465.336C122.385 446.19 132.683 426.557 150.375 418.571C168.089 410.574 185.81 415.337 203.901 422.418C207.419 423.794 210.966 425.265 214.526 426.741C220.052 429.033 225.609 431.337 231.137 433.323C240.266 436.602 249.489 439.083 258.782 439.34C284.387 440.049 301.569 429.562 313.926 421.61C314.384 421.315 314.835 421.024 315.28 420.737C317.834 419.089 320.157 417.59 322.313 416.35C324.845 414.894 327.076 413.838 329.091 413.332C331.086 412.832 332.825 412.881 334.43 413.584C336.05 414.292 337.655 415.719 339.269 418.204Z" fill="white" stroke="#6BDC74" stroke-width="2"/>
<rect width="232" height="100" transform="translate(116 164)" fill="white"/>
<path d="M339.269 170.204C342.522 175.21 344.925 182.539 346.131 190.964C347.334 199.375 347.335 208.807 345.84 217.976C342.841 236.364 333.895 253.404 316.932 259.36C299.751 265.393 284.875 263.128 268.325 258.353C263.808 257.05 259.158 255.556 254.302 253.997C241.405 249.853 227.061 245.246 209.919 242.513C186.104 238.717 168.913 245.667 155.655 252.165C154.003 252.974 152.422 253.771 150.901 254.538C146.281 256.867 142.225 258.912 138.491 260.143C133.588 261.759 129.483 261.883 125.637 259.458C121.812 257.046 119.068 251.447 117.793 243.808C116.528 236.23 116.755 226.886 118.628 217.336C122.385 198.19 132.683 178.557 150.375 170.571C168.089 162.574 185.81 167.337 203.901 174.418C207.419 175.794 210.966 177.265 214.526 178.741C220.052 181.033 225.609 183.337 231.137 185.323C240.266 188.602 249.489 191.083 258.782 191.34C284.387 192.049 301.569 181.562 313.926 173.61C314.384 173.315 314.835 173.024 315.28 172.737C317.834 171.089 320.157 169.59 322.313 168.35C324.845 166.894 327.076 165.838 329.091 165.332C331.086 164.832 332.825 164.881 334.43 165.584C336.05 166.292 337.655 167.719 339.269 170.204Z" fill="white" stroke="#6BDC74" stroke-width="2"/>
<defs>
<filter id="filter0_d_5_82" x="57" y="66" width="351" height="551" filterUnits="userSpaceOnUse" color-interpolation-filters="sRGB">
<feFlood flood-opacity="0" result="BackgroundImageFix"/>
<feColorMatrix in="SourceAlpha" type="matrix" values="0 0 0 0 0 0 0 0 0 0 0 0 0 0 0 0 0 0 127 0" result="hardAlpha"/>
<feMorphology radius="5" operator="dilate" in="SourceAlpha" result="effect1_dropShadow_5_82"/>
<feOffset dy="4"/>
<feGaussianBlur stdDeviation="2.5"/>
<feComposite in2="hardAlpha" operator="out"/>
<feColorMatrix type="matrix" values="0 0 0 0 0 0 0 0 0 0 0 0 0 0 0 0 0 0 0.25 0"/>
<feBlend mode="normal" in2="BackgroundImageFix" result="effect1_dropShadow_5_82"/>
<feBlend mode="normal" in="SourceGraphic" in2="effect1_dropShadow_5_82" result="shape"/>
</filter>
</defs>
</svg>
